<?xml version="1.0" encoding="UTF-8" standalone="no"?>
<!-- Created with Inkscape (http://www.inkscape.org/) -->

<svg
   width="63.999996"
   height="63.999996"
   viewBox="0 0 16.933332 16.933332"
   version="1.1"
   id="svg1"
   xml:space="preserve"
   inkscape:export-filename="arena_de_pernambuco.png"
   inkscape:export-xdpi="96"
   inkscape:export-ydpi="96"
   xmlns:inkscape="http://www.inkscape.org/namespaces/inkscape"
   xmlns:sodipodi="http://sodipodi.sourceforge.net/DTD/sodipodi-0.dtd"
   xmlns="http://www.w3.org/2000/svg"
   xmlns:svg="http://www.w3.org/2000/svg"><sodipodi:namedview
     id="namedview1"
     pagecolor="#ffffff"
     bordercolor="#000000"
     borderopacity="0.25"
     inkscape:showpageshadow="2"
     inkscape:pageopacity="0.0"
     inkscape:pagecheckerboard="0"
     inkscape:deskcolor="#d1d1d1"
     inkscape:document-units="px"><inkscape:page
       x="0"
       y="0"
       width="16.933332"
       height="16.933332"
       id="page2"
       margin="0"
       bleed="0" /></sodipodi:namedview><defs
     id="defs1" /><g
     inkscape:groupmode="layer"
     id="layer2"
     inkscape:label="lineart"
     style="fill:#0e4468;fill-opacity:1"><path
       style="fill:#0e4468;fill-opacity:1;stroke-width:0.570257"
       d="m 1.2925909,6.3485468 0.2258508,0.3549084 c 0,0 -0.096793,0.1613223 -0.322644,0.2903792 C 0.96994731,7.1228919 0.9054181,7.1874217 0.9054181,7.1874217 L 1.6474989,7.0583636 2.7122239,8.5425251 2.1959936,9.0587554 2.90581,8.8651688 4.1963854,10.446124 3.5833619,11.414055 4.648087,10.833296 c 0,0 1.3228395,1.193782 2.0326558,1.226046 0.7098168,0.03226 0.8066094,-0.03226 0.8066094,-0.03226 l 0.1613225,1.096989 0.3871724,-1.105054 c 0,0 0.8186599,-0.175831 1.4004271,-0.483815 0.5817658,-0.307994 1.7567048,-1.060868 1.7567048,-1.060868 l 1.186348,0.433473 -0.581766,-0.764282 1.60841,-1.2091605 c 0,0 1.072277,0.5931733 1.323235,0.627395 0.250959,0.034221 0.787095,0.011402 0.787095,0.011402 L 14.02196,8.5008862 15.128456,7.337353 c 0,0 0.581767,0.3079939 0.901168,0.3194015 0.319403,0.011402 0.593174,-0.1368856 0.593174,-0.1368856 0,0 -0.96961,-0.2737721 -1.266196,-0.6958379 C 15.060014,6.4019648 14.797649,5.8316058 14.797649,5.8316058 l 0.02282,-0.399251 -0.365031,0.068443 c 0,0 -0.547545,-0.5247304 -1.243383,-0.6616161 -0.69584,-0.1368847 -1.973444,-0.2167359 -1.973444,-0.2167359 0,0 2.064699,0.5703591 2.349879,0.7528741 0.285183,0.1825155 0.558957,0.456287 0.558957,0.456287 l -1.106498,0.7870958 c 0,0 -0.182511,-0.2737722 -0.193913,-0.4676946 -0.01142,-0.1939213 -0.02282,-0.3194012 -0.02282,-0.3194012 0,0 -0.319404,0.4676945 -0.319404,0.6730236 v 0.296587 c 0,0 -1.323231,0.7642815 -1.482931,0.8669462 -0.159703,0.102664 -0.387845,0.1482935 -0.387845,0.1482935 -0.03972,-0.3739966 -0.11313,-0.7407512 -0.193928,-1.1064964 -0.226142,0.4386715 -0.42399,0.9154821 -0.5817644,1.3688618 0,0 -1.1064974,0.3650298 -1.3916771,0.3878439 -0.2851796,0.022816 -0.387844,0 -0.387844,0 L 7.9305214,7.5883113 c 0,0 0.821317,-0.2053293 1.0380536,-0.2851794 0.2167409,-0.079851 0.5247346,-0.2623653 0.5247346,-0.2623653 0,0 -2.2472152,0.022816 -2.8403886,-0.2509584 C 6.0597478,6.516036 5.7289395,6.2536709 5.7289395,6.2536709 c 0,0 1.5741909,-0.6730237 2.8860171,-0.6844312 1.3118265,-0.011402 3.4335614,0.2623652 3.4335614,0.2623652 0,0 -1.813741,-1.095089 -3.5476332,-0.9924243 C 6.7669931,4.941845 5.1813948,5.3410963 4.7707362,5.6034614 4.3600778,5.8658266 4.2460057,6.2536709 4.2460057,6.2536709 L 3.8467541,6.8126232 c 0,0 -0.9239815,-0.5817666 -0.9125739,-0.7870958 0.011402,-0.2053294 0.2053293,-0.3308082 0.2053293,-0.3308082 0,0 0.2281435,-0.2167367 1.3118259,-0.4676946 1.0836819,-0.2509582 2.7947592,-0.6159881 2.7947592,-0.6159881 0,0 -2.5323941,-0.022816 -3.1711961,0.1596995 C 3.4360958,4.9532521 2.7516652,5.2612459 2.7516652,5.2612459 L 2.6946286,5.0216954 c 0,0 -0.5247304,1.0722748 -0.6844311,1.2091612 C 1.8504959,6.3677421 1.6679819,6.5046287 1.6679819,6.5046287 Z"
       id="path1"
       sodipodi:nodetypes="ccsccccccccscccsccccscccccscccscsccccscscccsccscscccssccccscsccscc" /></g></svg>
